<svg id="Layer_1" data-name="Layer 1" xmlns="http://www.w3.org/2000/svg" viewBox="0 0 407.44 224.04"><defs><style>.cls-1{fill:#f7ec13;}.cls-2{fill:#231f20;}.cls-3{fill:#d26a28;}.cls-4{fill:#f9bfcb;}.cls-5{fill:#fde589;}</style></defs><title>hansochgretafinal</title><circle class="cls-1" cx="84.64" cy="65.97" r="25.51"/><path class="cls-2" d="M168,421.57A33.61,33.61,0,1,1,201.64,388,33.65,33.65,0,0,1,168,421.57Zm0-51A17.42,17.42,0,1,0,185.45,388,17.44,17.44,0,0,0,168,370.54Z" transform="translate(-83.39 -321.98)"/><circle class="cls-3" cx="33.61" cy="65.97" r="25.51"/><path class="cls-2" d="M117,421.57A33.61,33.61,0,1,1,150.61,388,33.65,33.65,0,0,1,117,421.57Zm0-51A17.42,17.42,0,1,0,134.42,388,17.44,17.44,0,0,0,117,370.54Z" transform="translate(-83.39 -321.98)"/><circle class="cls-4" cx="59.13" cy="33.61" r="25.51"/><path class="cls-2" d="M142.52,389.21a33.61,33.61,0,1,1,33.61-33.61A33.65,33.65,0,0,1,142.52,389.21Zm0-51a17.42,17.42,0,1,0,17.42,17.42A17.44,17.44,0,0,0,142.52,338.18Z" transform="translate(-83.39 -321.98)"/><path class="cls-5" d="M94.32,399.9l96.4,0a2.69,2.69,0,0,1,2.5,3.7L142.57,530.18h0L91.82,403.6A2.69,2.69,0,0,1,94.32,399.9Z" transform="translate(-83.39 -321.98)"/><path class="cls-2" d="M142.58,546,86.35,405.79a8.59,8.59,0,0,1,8-11.78l96.4,0h0a8.58,8.58,0,0,1,8,11.77ZM99,405.79l43.53,108.55L186,405.75Z" transform="translate(-83.39 -321.98)"/><path class="cls-2" d="M245.52,445.67a2.74,2.74,0,0,1,.33,1.46,4.17,4.17,0,0,1-.84,2.74q-4.37,5.34-9.32,5.34a8.22,8.22,0,0,1-6.85-3.31q-2.56-3.31-2.56-9.5,0-1.5.13-3a62.79,62.79,0,0,1-6.36.8q-2.3.18-3.14.22-.88,4.51-2.47,11-.93,3.84-3.53,3.84-2.83,0-2.83-2.56a7.94,7.94,0,0,1,.22-1.59q1.5-6.05,2.39-10.25l-2.12.09a3.51,3.51,0,0,1-2.12-.51,2,2,0,0,1-.66-1.66,2.61,2.61,0,0,1,.84-2.14,4.79,4.79,0,0,1,2.78-.77l2.34-.09a56.89,56.89,0,0,0,1.15-9.5,4.65,4.65,0,0,0-.62-2.83,2,2,0,0,0-1.63-.75q-3.09,0-7,5.17a1.62,1.62,0,0,1-1.28.75,1.3,1.3,0,0,1-1.06-.57,2.32,2.32,0,0,1-.44-1.46,5.1,5.1,0,0,1,1.1-2.92,16,16,0,0,1,4.9-4.44,11.71,11.71,0,0,1,6-1.74,5.35,5.35,0,0,1,4.44,2q1.57,2,1.57,6.12a63.14,63.14,0,0,1-1.06,9.94l4.33-.22a45.38,45.38,0,0,0,4.77-.44,45.78,45.78,0,0,1,2.43-9.1,21.53,21.53,0,0,1,4.06-6.89,7.25,7.25,0,0,1,5.43-2.65,4.1,4.1,0,0,1,3.49,1.74,7.54,7.54,0,0,1,1.28,4.57q0,11-11.18,15.2-.13,1.77-.13,3.67,0,4.64,1.15,6.58A3.57,3.57,0,0,0,236.7,450a6.07,6.07,0,0,0,3.31-1,15.63,15.63,0,0,0,3.4-3.25,1.55,1.55,0,0,1,1.19-.62A1,1,0,0,1,245.52,445.67Zm-8.92-23.81a22.48,22.48,0,0,0-2.05,4.81,45.33,45.33,0,0,0-1.55,6.67,10.7,10.7,0,0,0,5.21-4.15,12.94,12.94,0,0,0,1.68-6.94,3,3,0,0,0-.35-1.59,1,1,0,0,0-.88-.57Q237.68,420.09,236.59,421.86Z" transform="translate(-83.39 -321.98)"/><path class="cls-2" d="M243.33,453.23a7.94,7.94,0,0,1-1.63-5.21,14.36,14.36,0,0,1,1.63-6.69,14,14,0,0,1,4.35-5.08,9.81,9.81,0,0,1,5.76-1.92,1.72,1.72,0,0,1,1.3.38,3.2,3.2,0,0,1,.55,1.35,10.36,10.36,0,0,1,1.94-.18q2.16,0,2.16,1.55a33.06,33.06,0,0,1-.66,4.42,42.9,42.9,0,0,0-1,7.07,1.61,1.61,0,0,0,.33,1.06,1.07,1.07,0,0,0,.86.4,3.35,3.35,0,0,0,2-1.08,37.74,37.74,0,0,0,3.22-3.51,1.55,1.55,0,0,1,1.19-.62,1,1,0,0,1,.91.53,2.74,2.74,0,0,1,.33,1.46,4.06,4.06,0,0,1-.84,2.74,22.23,22.23,0,0,1-3.84,3.8,6.55,6.55,0,0,1-3.93,1.55,4.12,4.12,0,0,1-2.67-1,6,6,0,0,1-1.83-2.72q-2.3,3.71-5.79,3.71A5.37,5.37,0,0,1,243.33,453.23Zm7.82-3.62a7.45,7.45,0,0,0,1.28-3l1.63-8.13a5.35,5.35,0,0,0-3.42,1.39,9.39,9.39,0,0,0-2.5,3.56,12,12,0,0,0-.93,4.68,3.13,3.13,0,0,0,.55,2,1.88,1.88,0,0,0,1.52.66A2.42,2.42,0,0,0,251.15,449.6Z" transform="translate(-83.39 -321.98)"/><path class="cls-2" d="M263.8,453.45a16.93,16.93,0,0,1-.68-5.66,36,36,0,0,1,1.63-10.91,3.32,3.32,0,0,1,1.3-1.88,4.59,4.59,0,0,1,2.54-.6,2.5,2.5,0,0,1,1.24.22.92.92,0,0,1,.35.84,16.84,16.84,0,0,1-.66,3.18q-.44,1.77-.71,3.09a31.63,31.63,0,0,0-.44,3.27,25.12,25.12,0,0,1,3.27-6.18,12.8,12.8,0,0,1,3.56-3.4,6.46,6.46,0,0,1,3.2-1,2.54,2.54,0,0,1,2.87,2.87,35.52,35.52,0,0,1-1,6.23,30.65,30.65,0,0,0-.84,5.08q0,1.77,1.28,1.77a3.45,3.45,0,0,0,2.1-1.08,35.54,35.54,0,0,0,3.25-3.51,1.55,1.55,0,0,1,1.19-.62,1,1,0,0,1,.91.53,2.74,2.74,0,0,1,.33,1.46,4.06,4.06,0,0,1-.84,2.74,19.53,19.53,0,0,1-4.09,3.84,8.57,8.57,0,0,1-5,1.5,4.29,4.29,0,0,1-3.4-1.3,5.54,5.54,0,0,1-1.15-3.78,27.5,27.5,0,0,1,.62-4.42,22.93,22.93,0,0,0,.57-3.84c0-.47-.16-.71-.49-.71s-.92.49-1.61,1.48a23.72,23.72,0,0,0-2.12,3.91,30.4,30.4,0,0,0-1.74,5.12,6.89,6.89,0,0,1-1.13,2.8,2.54,2.54,0,0,1-2,.73A2.41,2.41,0,0,1,263.8,453.45Z" transform="translate(-83.39 -321.98)"/><path class="cls-2" d="M289.64,455.12a3.12,3.12,0,0,1-1.21-2.39,2.72,2.72,0,0,1,.84-2,3.35,3.35,0,0,1,2.47-.84,9.75,9.75,0,0,1,1.35.11l1.17.15a5.69,5.69,0,0,0-.51-2.16,10.86,10.86,0,0,0-1.17-2q-.71-.95-1.33-1.66a28.87,28.87,0,0,1-2.72,4.33A32.51,32.51,0,0,1,285.6,452a2.37,2.37,0,0,1-1.68.8,1.45,1.45,0,0,1-1.15-.51,1.85,1.85,0,0,1-.44-1.26,2.53,2.53,0,0,1,.62-1.63l.57-.71a57.27,57.27,0,0,0,3.67-4.95,28.52,28.52,0,0,0,1.61-3q.82-1.76,2.14-4.81.84-1.94,3.49-1.94a4.65,4.65,0,0,1,1.72.22.74.74,0,0,1,.49.71,3.28,3.28,0,0,1-.18.84,6.39,6.39,0,0,1-.49,1.15,6.3,6.3,0,0,0-.8,2.69,2.94,2.94,0,0,0,.46,1.46,16.63,16.63,0,0,0,1.44,2,28.19,28.19,0,0,1,2.14,3.16A5.74,5.74,0,0,1,300,449a7.51,7.51,0,0,1-.86,3.51,7,7,0,0,1-2.41,2.67,6.29,6.29,0,0,1-3.53,1A5.19,5.19,0,0,1,289.64,455.12Z" transform="translate(-83.39 -321.98)"/><path class="cls-2" d="M337.46,442a3.06,3.06,0,0,1,.31,1.46q0,2.12-1.28,2.52a20.09,20.09,0,0,1-5.83,1.06,11,11,0,0,1-3.31,5.94,8.15,8.15,0,0,1-5.61,2.23,7.83,7.83,0,0,1-4.53-1.28,8.13,8.13,0,0,1-2.85-3.4,10.9,10.9,0,0,1-1-4.59,13.48,13.48,0,0,1,1.28-6,10.07,10.07,0,0,1,3.53-4.11,8.89,8.89,0,0,1,5-1.48,6.88,6.88,0,0,1,5.41,2.32A9.94,9.94,0,0,1,331,442.4a26.75,26.75,0,0,0,4.95-.88,2.6,2.6,0,0,1,.62-.09A1,1,0,0,1,337.46,442Zm-12.92,7.38a6.38,6.38,0,0,0,1.39-3.31,6.1,6.1,0,0,1-2.1-2.43,7.19,7.19,0,0,1-.73-3.18,7.72,7.72,0,0,1,.13-1.41H323a3.46,3.46,0,0,0-2.94,1.7,8.38,8.38,0,0,0-1.17,4.79,6.16,6.16,0,0,0,.95,3.71,2.74,2.74,0,0,0,2.23,1.28A3.2,3.2,0,0,0,324.54,449.38Z" transform="translate(-83.39 -321.98)"/><path class="cls-2" d="M335.67,452.76a8.83,8.83,0,0,1-2.41-6.47,13.32,13.32,0,0,1,1.41-6.27,10.79,10.79,0,0,1,3.67-4.15,8.57,8.57,0,0,1,4.73-1.46,4.93,4.93,0,0,1,3.78,1.44,5.17,5.17,0,0,1,1.35,3.69,5.71,5.71,0,0,1-.82,3.14,2.46,2.46,0,0,1-2.14,1.28,2.12,2.12,0,0,1-1.35-.4,1.32,1.32,0,0,1-.51-1.1,3.21,3.21,0,0,1,.09-.71c.06-.27.1-.46.13-.58a3.93,3.93,0,0,0,.22-1.24,1.25,1.25,0,0,0-.29-.88,1.07,1.07,0,0,0-.82-.31,2.63,2.63,0,0,0-1.9.91,6.44,6.44,0,0,0-1.41,2.45,10.46,10.46,0,0,0-.53,3.4q0,5.12,4.46,5.12a7.89,7.89,0,0,0,3.91-1.21,15.91,15.91,0,0,0,4.13-3.65,1.56,1.56,0,0,1,1.19-.62,1,1,0,0,1,.91.53,2.75,2.75,0,0,1,.33,1.46,4.28,4.28,0,0,1-.84,2.74,14.31,14.31,0,0,1-5,4,12.87,12.87,0,0,1-5.59,1.39A9,9,0,0,1,335.67,452.76Z" transform="translate(-83.39 -321.98)"/><path class="cls-2" d="M368,435.14a2.9,2.9,0,0,1,.73,2.14,35,35,0,0,1-.48,4.33q-.44,2.69-.71,5.1a49.32,49.32,0,0,0-.26,5.37,3.46,3.46,0,0,1-.68,2.41,3,3,0,0,1-2.23.73,2.68,2.68,0,0,1-2.12-.75,3.31,3.31,0,0,1-.66-2.25,44.29,44.29,0,0,1,.62-5.83,41.53,41.53,0,0,0,.53-4.51c0-.47-.16-.71-.49-.71s-.93.49-1.63,1.48a21.71,21.71,0,0,0-2.12,3.91,32,32,0,0,0-1.72,5.12,6.86,6.86,0,0,1-1.13,2.8,2.54,2.54,0,0,1-2,.73,2.22,2.22,0,0,1-2-1,7.25,7.25,0,0,1-.86-3.07q-.22-2.07-.22-6.1a76.41,76.41,0,0,1,1.39-14.18A42.63,42.63,0,0,1,356,418.48q2.72-5,6.52-5a3.88,3.88,0,0,1,3.29,1.74,7.56,7.56,0,0,1,1.26,4.53,19.35,19.35,0,0,1-2.61,9.25,59.83,59.83,0,0,1-8.48,11.2q-.13,2.3-.13,4.73a25.34,25.34,0,0,1,3.25-6.12,12.67,12.67,0,0,1,3.53-3.38,6.46,6.46,0,0,1,3.2-1A2.91,2.91,0,0,1,368,435.14Zm-8.15-15a38.53,38.53,0,0,0-1.88,6.14,81.88,81.88,0,0,0-1.48,8.42,31.62,31.62,0,0,0,4.53-7,16.41,16.41,0,0,0,1.79-6.89,5.93,5.93,0,0,0-.31-2.16q-.31-.75-.88-.75Q360.83,417.84,359.86,420.12Z" transform="translate(-83.39 -321.98)"/><path class="cls-2" d="M421.76,445.78a2.68,2.68,0,0,1,.33,1.39,3.39,3.39,0,0,1-.31,1.59,2.88,2.88,0,0,1-1,1q-2.61,1.72-8.3,5.65a53.19,53.19,0,0,1-4.46,14.4q-2.74,5.26-6.94,5.26a5,5,0,0,1-3.67-1.39,4.89,4.89,0,0,1-1.41-3.65,10.41,10.41,0,0,1,.93-4.2,19.16,19.16,0,0,1,3.47-4.9,57.17,57.17,0,0,1,7.18-6.36l.13-.84a17.7,17.7,0,0,1-6.85,1.46,18.84,18.84,0,0,1-8.7-1.92,14,14,0,0,1-5.83-5.46,15.91,15.91,0,0,1-2.08-8.22,25.79,25.79,0,0,1,2.47-11.55,18.83,18.83,0,0,1,6.82-7.77,17.8,17.8,0,0,1,9.74-2.76q5.17,0,7.75,2.41a8.31,8.31,0,0,1,2.58,6.38,8,8,0,0,1-1,4.18,3.26,3.26,0,0,1-4.64,1,1.91,1.91,0,0,1-.73-1.59,10.38,10.38,0,0,1,.18-1.5,10,10,0,0,0,.26-1.94,3.67,3.67,0,0,0-1.13-2.87,5.61,5.61,0,0,0-3.78-1,10.52,10.52,0,0,0-6,1.86,12.88,12.88,0,0,0-4.44,5.54,21.25,21.25,0,0,0-1.68,8.86q0,5.3,2.89,8.19t8.37,2.89a16.63,16.63,0,0,0,6.36-1.37l.62-5.39h-4.51a2.74,2.74,0,0,1-1.9-.6,2.53,2.53,0,0,1-.66-2,2.73,2.73,0,0,1,.66-1.94,2.31,2.31,0,0,1,1.77-.71h8.26a2.19,2.19,0,0,1,1.61.64,2.13,2.13,0,0,1,.51,1.83q-.13,1.41-.88,6.41l-.49,3.36q3.54-2.65,6.45-4.59a2,2,0,0,1,1-.35A1,1,0,0,1,421.76,445.78ZM404.12,468.2a34.21,34.21,0,0,0,2.56-8.39,25,25,0,0,0-4.84,5.19,7.89,7.89,0,0,0-1.48,4.09q0,1.72,1.24,1.72T404.12,468.2Z" transform="translate(-83.39 -321.98)"/><path class="cls-2" d="M419.69,453.45a16.91,16.91,0,0,1-.68-5.66,36,36,0,0,1,1.63-10.91,3.33,3.33,0,0,1,1.3-1.88,4.58,4.58,0,0,1,2.54-.6,2.5,2.5,0,0,1,1.24.22.91.91,0,0,1,.35.84,16.86,16.86,0,0,1-.66,3.18q-.44,1.77-.71,3.09a31.61,31.61,0,0,0-.44,3.27,25.12,25.12,0,0,1,3.27-6.18,12.78,12.78,0,0,1,3.56-3.4,6.46,6.46,0,0,1,3.2-1,2.54,2.54,0,0,1,2.87,2.87,22,22,0,0,1-.4,2.78,16.21,16.21,0,0,0-.35,2.21q0,1.55,1.1,1.55t3.18-1.94a1.69,1.69,0,0,1,1.19-.57,1,1,0,0,1,.91.51,2.44,2.44,0,0,1,.33,1.35,3.57,3.57,0,0,1-.88,2.56,12,12,0,0,1-2.89,2.19,7.22,7.22,0,0,1-3.51.91,4.88,4.88,0,0,1-3.56-1.19,4.32,4.32,0,0,1-1.22-3.23,6.81,6.81,0,0,1,.13-1.33c.06-.59.09-1,.09-1.19,0-.47-.16-.71-.49-.71s-1,.49-1.74,1.48a20.63,20.63,0,0,0-2.14,3.91,31.68,31.68,0,0,0-1.72,5.12,6.88,6.88,0,0,1-1.13,2.8,2.54,2.54,0,0,1-2,.73A2.41,2.41,0,0,1,419.69,453.45Z" transform="translate(-83.39 -321.98)"/><path class="cls-2" d="M459.62,445.67a2.74,2.74,0,0,1,.33,1.46,4.06,4.06,0,0,1-.84,2.74,16.13,16.13,0,0,1-4.62,3.67,12.79,12.79,0,0,1-6.38,1.68q-4.64,0-7.2-2.52a9.22,9.22,0,0,1-2.56-6.89,12.77,12.77,0,0,1,1.28-5.68,10.49,10.49,0,0,1,3.56-4.17,9,9,0,0,1,5.14-1.55,5.6,5.6,0,0,1,4.11,1.52,5.54,5.54,0,0,1,1.55,4.13,7.14,7.14,0,0,1-2.19,5.24q-2.19,2.18-7.4,3.47,1.1,2,4.2,2a9.67,9.67,0,0,0,4.53-1.39,15,15,0,0,0,4.39-3.65,1.55,1.55,0,0,1,1.19-.62A1,1,0,0,1,459.62,445.67Zm-14.8-5a8.86,8.86,0,0,0-1.13,4.59v.09a10,10,0,0,0,4.11-1.85,3.65,3.65,0,0,0,1.5-2.87,1.92,1.92,0,0,0-.46-1.35,1.62,1.62,0,0,0-1.26-.51A3.24,3.24,0,0,0,444.82,440.64Z" transform="translate(-83.39 -321.98)"/><path class="cls-2" d="M477,445.67a2.74,2.74,0,0,1,.33,1.46,4.06,4.06,0,0,1-.84,2.74,18.76,18.76,0,0,1-4.15,3.84,9.1,9.1,0,0,1-5.17,1.5q-9,0-9-12.68,0-1.94.13-3.93h-1.72a2.48,2.48,0,0,1-1.79-.49,2.18,2.18,0,0,1-.46-1.55q0-2.47,2-2.47h2.52a42.88,42.88,0,0,1,2.3-8.88,20,20,0,0,1,3.73-6.4,6.36,6.36,0,0,1,4.7-2.39,3.31,3.31,0,0,1,2.92,1.63,7.41,7.41,0,0,1,1.06,4.11q0,6.85-5.74,11.93h4.95a1.4,1.4,0,0,1,1,.31,1.63,1.63,0,0,1,.31,1.15q0,3-5,3h-5.39q-.09,2.21-.09,3.45,0,4.59,1.08,6.45a3.67,3.67,0,0,0,3.42,1.85,5.27,5.27,0,0,0,3.36-1.15,26.68,26.68,0,0,0,3.45-3.45,1.55,1.55,0,0,1,1.19-.62A1,1,0,0,1,477,445.67Zm-10.11-23.35a23.46,23.46,0,0,0-1.55,4.59,61.49,61.49,0,0,0-1.21,6.52,15.08,15.08,0,0,0,3.91-5.06,12.27,12.27,0,0,0,1.3-5.1q0-2.61-1-2.61Q467.68,420.67,466.86,422.33Z" transform="translate(-83.39 -321.98)"/><path class="cls-2" d="M474.73,453.23a8.17,8.17,0,0,1-1.57-5.21,14.36,14.36,0,0,1,1.63-6.69,13.94,13.94,0,0,1,4.35-5.08,9.81,9.81,0,0,1,5.76-1.92,1.72,1.72,0,0,1,1.3.38,3.19,3.19,0,0,1,.55,1.35,9,9,0,0,1,1.85-.18,2.32,2.32,0,0,1,1.63.53,1.94,1.94,0,0,1,.57,1.5,24.18,24.18,0,0,1-.44,3.53q-.49,2.69-.75,5.15a51.46,51.46,0,0,0-.27,5.5,3.45,3.45,0,0,1-.68,2.41,2.94,2.94,0,0,1-2.23.73,3,3,0,0,1-2.23-.73,3.24,3.24,0,0,1-.73-2.36l0-.71q-1.37,3.8-4.73,3.8A5,5,0,0,1,474.73,453.23Zm8.06-4.2a20.36,20.36,0,0,0,1.81-6.14l.84-4.46a5.21,5.21,0,0,0-3.36,1.39,9.51,9.51,0,0,0-2.47,3.56,12,12,0,0,0-.93,4.68,3.35,3.35,0,0,0,.51,2,1.6,1.6,0,0,0,1.35.69Q481.77,450.75,482.79,449Z" transform="translate(-83.39 -321.98)"/></svg>